<svg version="1.1" xmlns="http://www.w3.org/2000/svg" style="display: block;" viewBox="0 0 1736 1200" width="434" height="300">
<defs>
	<linearGradient id="Gradient1" gradientUnits="userSpaceOnUse" x1="905.64" y1="444.787" x2="912.694" y2="403.25">
		<stop class="stop0" offset="0" stop-opacity="1" stop-color="rgb(0,0,0)"/>
		<stop class="stop1" offset="1" stop-opacity="1" stop-color="rgb(54,43,49)"/>
	</linearGradient>
	<linearGradient id="Gradient2" gradientUnits="userSpaceOnUse" x1="1424.77" y1="397.804" x2="1447.43" y2="377.195">
		<stop class="stop0" offset="0" stop-opacity="1" stop-color="rgb(30,30,30)"/>
		<stop class="stop1" offset="1" stop-opacity="1" stop-color="rgb(63,60,61)"/>
	</linearGradient>
	<linearGradient id="Gradient3" gradientUnits="userSpaceOnUse" x1="1026.57" y1="172.402" x2="988.913" y2="260.821">
		<stop class="stop0" offset="0" stop-opacity="1" stop-color="rgb(0,0,0)"/>
		<stop class="stop1" offset="1" stop-opacity="1" stop-color="rgb(53,53,54)"/>
	</linearGradient>
</defs>
<path transform="translate(0,0)" fill="rgb(255,255,255)" d="M 0 0 L 1736 0 L 1736 1200 L 0 1200 L 0 0 z"/>
<path transform="translate(0,0)" fill="rgb(44,44,44)" d="M 1495.8 484.944 C 1534.45 484.951 1573.25 484.12 1611.88 485.308 C 1600.49 510.762 1590.61 536.756 1580.24 562.628 L 1531.19 685.006 L 1500.29 762.07 C 1493.31 779.293 1485.32 797.023 1479.84 814.751 C 1461.61 817.391 1425.49 817.103 1407.17 814.741 C 1416.43 802.283 1425.33 773.423 1431.42 757.971 L 1464.95 674.096 L 1483.78 627.333 C 1488.19 616.484 1493.25 605.51 1496.22 594.17 C 1466.68 637.749 1438.04 682.051 1409.05 726.009 C 1389.6 755.502 1369.22 784.736 1350.64 814.773 C 1332.58 817.9 1293.28 816.27 1273.52 815.59 C 1279.66 784.712 1282 748.008 1286.14 716.191 L 1296.26 639.708 C 1298.03 625.955 1300.31 611.881 1301.09 598.038 C 1286.38 627.49 1275.55 660.084 1263.45 690.735 C 1247.06 732.208 1229.55 773.332 1213.97 815.108 C 1194.4 816.921 1163.08 817.536 1143.67 814.901 C 1174.65 741.867 1203.24 667.476 1232.5 593.722 L 1260.72 522.928 C 1265.7 510.515 1271.82 497.792 1275.53 484.971 L 1382.74 485.142 C 1379.28 506.147 1377.62 527.626 1375.37 548.796 C 1370.09 598.546 1365.76 648.849 1358.19 698.298 C 1372.98 680.601 1384.9 659.229 1397.42 639.838 L 1462.03 540.288 C 1471.07 526.401 1480.08 508.053 1491.22 496.247 L 1491.66 495.2 L 1494.54 493.086 C 1495.5 489.557 1494.89 488.109 1494.06 484.604 L 1495.8 484.944 z"/>
<path transform="translate(0,0)" fill="rgb(40,88,135)" d="M 1526.85 501.402 C 1535.41 504.479 1568.49 515.837 1571.92 524.516 C 1572.01 524.733 1572.03 524.971 1572.08 525.198 L 1570.86 526.453 C 1563.46 525.405 1530.24 513.208 1524.98 508.65 C 1525.64 508.348 1526.14 507.812 1526.68 507.339 L 1525.21 506.61 C 1524.96 504.482 1525.84 503.207 1526.85 501.402 z"/>
<path transform="translate(0,0)" fill="rgb(38,118,195)" d="M 1494.06 484.604 L 1495.8 484.944 C 1503.2 491.677 1517.42 497.739 1526.85 501.402 C 1525.84 503.207 1524.96 504.482 1525.21 506.61 L 1526.68 507.339 C 1526.14 507.812 1525.64 508.348 1524.98 508.65 C 1514.53 504.678 1502.4 497.006 1491.22 496.247 L 1491.66 495.2 L 1494.54 493.086 C 1495.5 489.557 1494.89 488.109 1494.06 484.604 z"/>
<path transform="translate(0,0)" fill="rgb(17,139,249)" d="M 680.147 485.155 C 713.861 483.299 748.456 484.875 782.246 485.021 C 779.476 498.222 779.375 512.57 778.461 526.02 L 773.618 600.465 C 768.874 672.193 762.366 744.017 759.186 815.814 C 733.182 815.885 707.117 816.329 681.123 815.591 C 681.913 790.121 684.334 764.634 686.275 739.229 C 647.659 740.675 608.608 738.446 569.906 739.232 C 565.364 743.901 561.6 748.737 557.823 754.027 C 545.695 771.317 527.63 800.926 514.267 815.19 C 504.591 816.629 494.124 816.016 484.345 815.995 L 436.219 815.827 C 442.158 806.59 449.57 797.858 456.155 789.033 L 496.632 734.615 L 621.702 565.113 L 659.545 514.247 C 666.561 504.757 674.194 495.353 680.147 485.155 z"/>
<path transform="translate(0,0)" fill="rgb(255,255,255)" d="M 703.708 544.828 C 706.407 549.32 697.297 659.936 696.411 674.783 C 668.718 675.336 640.927 674.91 613.223 674.944 L 612.308 673.842 C 624.044 661.288 633.97 644.481 643.917 630.387 C 664.081 602.031 684.012 573.51 703.708 544.828 z"/>
<path transform="translate(0,0)" fill="rgb(17,139,249)" d="M 1277.95 108.026 C 1279.7 109.51 1282.06 110.748 1282.23 113.145 C 1282.34 114.784 1281.89 116.526 1281.58 118.131 C 1274.53 135.592 1218.34 246.014 1218 250.676 C 1216.64 252.931 1215.45 254.817 1214.88 257.436 C 1211.16 262.295 1208.8 269.542 1206.23 275.153 C 1199.49 289.88 1185.07 324.142 1175.99 335.182 L 1383.82 434.157 L 1444.96 463.227 C 1456.4 468.734 1467.59 474.785 1479.24 479.845 C 1483.66 481.765 1489.23 484.573 1494.06 484.604 C 1494.89 488.109 1495.5 489.557 1494.54 493.086 L 1491.66 495.2 C 1473.24 487.382 1454.48 480.895 1435.79 473.791 L 1370.07 448.162 C 1331.65 433.293 1293.69 417.179 1255.4 401.985 C 1223.4 389.293 1189.83 377.519 1158.89 362.548 C 1142.44 394.633 1121.88 425.452 1103.32 456.443 L 989.197 646.274 C 960.559 694.948 931.395 743.311 901.71 791.353 C 894.296 803.722 886.967 816.142 879.725 828.613 C 876.284 834.46 872.839 841.428 868.67 846.706 C 867.271 847.098 865.905 847.636 864.535 848.121 L 863.943 852.275 C 862.503 853.406 861.804 853.491 860.053 853.637 C 861.895 850.326 863.3 847.625 863.551 843.786 C 863.57 843.495 863.582 843.203 863.598 842.912 C 923.846 727.235 985.208 612.141 1047.67 497.646 L 1098.5 403.352 C 1107.6 386.321 1115.75 366.316 1127.66 351.237 C 1100.2 336.191 1070.32 323.97 1041.79 311.005 L 936.47 262.213 C 899.658 245.488 860.312 223.684 822.672 210.44 C 814.87 204.915 805.308 200.603 796.394 197.208 C 790.871 192.386 688.436 146.954 672.963 140.61 C 675.138 138.863 677.047 137.115 679.759 136.275 C 699.373 144.124 805.335 188.715 817.561 188.907 C 843.692 181.563 876.735 177.948 903.782 178.416 C 924.442 178.774 944.828 181.932 965.267 184.642 C 1025.33 192.608 1075.64 203.036 1133.7 220.689 C 1154.54 227.025 1175.79 233.491 1195.85 242.019 C 1199.99 239.085 1270.48 120.384 1277.95 108.026 z"/>
<path transform="translate(0,0)" fill="rgb(255,255,255)" d="M 817.561 188.907 C 843.692 181.563 876.735 177.948 903.782 178.416 C 924.442 178.774 944.828 181.932 965.267 184.642 C 1025.33 192.608 1075.64 203.036 1133.7 220.689 C 1154.54 227.025 1175.79 233.491 1195.85 242.019 C 1195.29 244.504 1194.73 245.124 1192.61 246.586 C 1191.79 247.148 1190.83 247.569 1189.93 247.982 L 1190.91 248.452 C 1190.93 248.79 1190.99 249.37 1190.93 249.739 C 1189.91 256.23 1158.19 305.132 1152.94 312.31 C 1150.59 315.524 1147.9 318.271 1144.93 320.906 L 947.345 242.345 C 925.344 233.731 903.464 224.738 881.401 216.299 C 870.962 212.307 859.278 209.257 849.272 204.473 C 848.171 203.946 847.288 203.049 846.498 202.138 C 838.187 199.984 824.059 194.616 817.561 188.907 z"/>
<path transform="translate(0,0)" fill="url(#Gradient3)" d="M 817.561 188.907 C 843.692 181.563 876.735 177.948 903.782 178.416 C 924.442 178.774 944.828 181.932 965.267 184.642 C 1025.33 192.608 1075.64 203.036 1133.7 220.689 C 1154.54 227.025 1175.79 233.491 1195.85 242.019 C 1195.29 244.504 1194.73 245.124 1192.61 246.586 C 1191.79 247.148 1190.83 247.569 1189.93 247.982 C 1099.87 215.405 989.125 186.962 893.18 194.605 C 877.322 195.868 861.782 197.517 846.498 202.138 C 838.187 199.984 824.059 194.616 817.561 188.907 z"/>
<path transform="translate(0,0)" fill="rgb(17,139,249)" d="M 331.574 485.414 C 350.084 483.034 376.659 485.015 395.938 485.015 L 537.73 485.172 C 528.371 502.971 519.623 529.608 511.409 548.897 C 469.46 550.809 426.714 549.111 384.692 549.1 C 367.065 549.096 348.854 548.175 331.332 550.189 C 323.827 551.052 315.888 552.577 309.216 556.227 C 302.09 560.126 295.692 566.463 291.362 573.31 C 277.742 594.845 263.374 636.841 253.316 662.055 C 245.235 682.31 235.077 703.453 229.233 724.426 C 227.715 729.874 225.48 738.222 228.448 743.48 C 233.25 747.65 239.169 749.258 245.344 750.292 C 262.335 753.139 280.344 752.094 297.537 752.095 L 374.5 752.042 C 392.289 752.055 411.561 750.185 429.174 751.893 L 430.291 753.397 C 430.589 759.898 409.922 801.829 407.455 814.778 L 407.269 815.8 L 264.679 816.001 C 238.793 816.011 211.027 818.044 185.435 814.774 C 174.278 813.348 161.07 810.517 152.183 803.369 C 145.345 797.87 141.828 790.588 141.066 781.901 C 140.039 770.196 142.745 758.434 146.022 747.271 C 149.824 734.322 155.22 721.859 160.166 709.317 C 168.868 686.921 177.878 664.647 187.193 642.5 C 198.979 613.805 209.089 583.869 223.521 556.38 C 228.322 547.235 234.516 538.611 241.184 530.743 C 264.681 503.014 295.618 488.431 331.574 485.414 z"/>
<path transform="translate(0,0)" fill="rgb(44,44,44)" d="M 1116.99 485.353 C 1135.67 483.882 1157.28 484.262 1174.8 491.724 C 1183.46 495.414 1191.94 501.341 1195.5 510.402 C 1197.88 516.456 1197.89 523.279 1196.83 529.619 C 1194.28 544.797 1180.4 576.59 1173.46 591.89 C 1161.74 617.721 1142.93 635.716 1116.27 645.796 C 1122.5 648.528 1128.39 651.222 1133.3 656.101 C 1138.51 661.263 1140.8 667.529 1140.83 674.795 C 1140.93 694.398 1117.43 751.321 1106.97 768.544 C 1103.39 774.438 1098.78 779.776 1093.91 784.631 C 1061.48 816.92 1027.4 815.995 984.636 815.935 L 918.272 815.776 C 915.67 815.549 913.477 815.526 911.218 814.067 C 924.564 793.924 937.326 773.401 949.488 752.522 C 969.543 751.179 1019.18 757.097 1034.88 744.778 C 1046.48 735.684 1058.55 710.038 1060.13 695.375 C 1060.57 691.365 1060.08 686.951 1057.24 683.855 C 1048.54 674.385 1010.18 676.562 996.785 675.634 C 1007.56 665.463 1029.5 627.574 1037.78 613.088 C 1055.11 613.132 1078.39 614.677 1091.62 601.404 C 1099.91 593.095 1110.46 570.617 1110.12 558.56 C 1110.07 556.49 1109.86 555.277 1108.16 553.911 C 1101.18 548.298 1086.9 548.551 1078.29 548.916 C 1088.85 532.163 1110.51 502.251 1116.99 485.353 z"/>
<path transform="translate(0,0)" fill="rgb(44,44,44)" d="M 930.325 485.112 C 961.258 484.475 992.292 484.894 1023.23 485.126 L 991.06 547.952 L 976.292 549.909 C 974.018 557.084 951.849 612.645 952.367 614.222 L 957.54 612.475 C 957.702 612.966 958.12 613.439 958.027 613.947 C 957.5 616.828 949.152 630.098 947.087 634.211 L 870.171 785.828 C 865.4 795.564 860.624 805.23 855.235 814.646 C 837.648 818.14 815.25 816.291 797.332 815.038 C 806.166 800.169 812.032 781.959 818.4 765.866 L 848.6 690.136 L 900.388 560.502 C 910.45 535.452 921.131 510.489 930.325 485.112 z"/>
<path transform="translate(0,0)" fill="rgb(44,44,44)" d="M 796.394 197.208 C 805.308 200.603 814.87 204.915 822.672 210.44 C 805.799 216.579 792.202 226.885 784.583 243.592 C 777.227 259.721 777.367 275.458 783.69 291.89 C 796.069 324.06 822.108 351.947 847.58 374.372 C 855.992 381.778 865.718 388.607 873.606 396.423 C 868.307 398.463 862.672 394.27 858.182 399.433 C 822.67 374.536 776.866 331.021 759.632 291.139 C 752.3 274.17 746.735 255.421 754.058 237.464 C 761.102 220.191 779.281 204.448 796.394 197.208 z"/>
<path transform="translate(0,0)" fill="url(#Gradient2)" d="M 1366.88 335.638 L 1368.64 334.768 C 1367.58 333.994 1366.48 333.187 1365.6 332.209 C 1363.54 329.923 1363.39 327.405 1363.42 324.478 C 1364.95 324.392 1371.32 329.303 1373.51 330.333 L 1375.58 329.54 C 1414.86 350.701 1456.06 383.242 1485.73 416.372 C 1494.56 426.234 1508.74 447.542 1517.05 454.48 C 1507.71 455.521 1498.45 456.452 1489.06 455.522 C 1473.69 419.113 1423.67 377.307 1392.07 353.22 C 1385.6 348.289 1371.31 341.381 1366.88 335.638 z"/>
<path transform="translate(0,0)" fill="rgb(44,44,44)" d="M 1218 250.676 C 1258.72 265.909 1298.33 285.449 1336.32 306.497 C 1349.5 313.802 1363.2 320.923 1375.58 329.54 L 1373.51 330.333 C 1371.32 329.303 1364.95 324.392 1363.42 324.478 C 1363.39 327.405 1363.54 329.923 1365.6 332.209 C 1366.48 333.187 1367.58 333.994 1368.64 334.768 L 1366.88 335.638 C 1329.78 310.797 1289.07 289.675 1248.35 271.471 C 1237.36 266.562 1226.32 261.199 1214.88 257.436 C 1215.45 254.817 1216.64 252.931 1218 250.676 z"/>
<path transform="translate(0,0)" fill="url(#Gradient1)" d="M 873.606 396.423 C 883.443 403.032 892.592 410.703 902.216 417.628 C 922.314 432.089 946.296 446.56 969.659 454.951 C 961.758 455.236 954.108 455.804 946.455 453.374 C 928.52 447.682 872.354 412.158 858.182 399.433 C 862.672 394.27 868.307 398.463 873.606 396.423 z"/>
<path transform="translate(0,0)" fill="rgb(99,177,243)" d="M 863.598 842.912 C 863.582 843.203 863.57 843.495 863.551 843.786 C 863.3 847.625 861.895 850.326 860.053 853.637 C 861.804 853.491 862.503 853.406 863.943 852.275 L 864.535 848.121 C 865.905 847.636 867.271 847.098 868.67 846.706 C 864.562 856.496 833.874 908.473 827.399 913.61 C 826.964 909.004 859.427 849.643 863.598 842.912 z"/>
<path transform="translate(0,0)" fill="rgb(99,177,243)" d="M 1277.95 108.026 C 1286.36 93.125 1294.34 75.92 1307.4 64.5631 C 1299.24 82.4429 1291.44 101.101 1281.58 118.131 C 1281.89 116.526 1282.34 114.784 1282.23 113.145 C 1282.06 110.748 1279.7 109.51 1277.95 108.026 z"/>
<path transform="translate(0,0)" fill="rgb(99,177,243)" d="M 672.963 140.61 C 659.859 135.656 647.094 128.089 634.681 121.601 C 650.028 124.786 665.269 130.368 679.759 136.275 C 677.047 137.115 675.138 138.863 672.963 140.61 z"/>
</svg>